<?xml version="1.0" standalone="no"?>
<!DOCTYPE svg PUBLIC "-//W3C//DTD SVG 20010904//EN"
 "http://www.w3.org/TR/2001/REC-SVG-20010904/DTD/svg10.dtd">
<svg version="1.0" xmlns="http://www.w3.org/2000/svg"
 width="1000.000000pt" height="1000.000000pt" viewBox="0 0 1000.000000 1000.000000"
 preserveAspectRatio="xMidYMid meet">

<g transform="translate(0.000000,1000.000000) scale(0.100000,-0.100000)"
fill="#000000" stroke="none">
<path d="M4204 8109 c-11 -19 -69 -134 -129 -256 -95 -193 -113 -223 -133
-223 -12 0 -84 9 -160 20 -344 50 -441 63 -627 85 -71 8 -184 22 -250 30 -66
8 -178 22 -250 30 -71 9 -155 20 -185 25 -30 5 -80 11 -110 15 -30 3 -89 9
-130 15 -173 22 -311 39 -400 50 -52 5 -147 17 -211 25 -205 25 -605 39 -805
29 -166 -9 -186 -13 -237 -37 -61 -31 -66 -38 -78 -117 -15 -96 -18 -105 -29
-108 -7 -3 -8 -24 -4 -60 3 -36 0 -89 -10 -141 -9 -45 -14 -87 -11 -91 3 -4 0
-32 -5 -61 -6 -30 -13 -130 -15 -224 -6 -220 -15 -335 -25 -335 -4 0 -5 -20
-3 -44 3 -24 1 -46 -5 -49 -5 -4 -7 -23 -3 -44 4 -21 7 -72 7 -114 -1 -72 0
-75 14 -54 14 21 15 15 13 -79 -1 -55 3 -128 9 -161 9 -54 12 -77 17 -150 1
-17 3 -18 12 -5 8 12 9 8 8 -15 -2 -16 0 -39 4 -50 3 -11 8 -31 11 -45 11 -55
34 -101 62 -125 20 -17 24 -25 13 -25 -17 0 -95 70 -121 108 -12 18 -21 22
-41 17 -14 -4 -28 -14 -32 -22 -8 -22 2 -28 19 -13 9 6 21 10 27 8 7 -2 -1
-10 -18 -17 -29 -12 -31 -16 -28 -54 1 -23 3 -53 4 -66 1 -16 5 -21 16 -17 11
4 15 -2 15 -20 0 -19 4 -25 14 -21 10 4 17 -3 21 -23 3 -15 13 -31 21 -34 8
-3 14 -10 14 -16 0 -6 -5 -8 -12 -4 -6 4 -8 3 -5 -3 5 -8 12 -56 19 -128 1 -5
-2 -20 -6 -32 -4 -13 -4 -23 1 -23 4 0 9 -64 10 -141 2 -87 7 -147 14 -155 7
-8 7 -14 2 -14 -14 0 -7 -104 9 -130 7 -11 33 -34 58 -49 178 -110 470 -156
1075 -171 209 -5 510 -14 669 -20 323 -12 306 -16 306 58 0 62 22 236 30 245
12 13 666 -99 980 -167 159 -34 393 -91 881 -212 708 -175 810 -189 1349 -188
372 1 476 7 1115 70 229 22 913 142 1200 209 33 8 150 35 260 60 630 144 1138
364 1240 540 18 30 24 51 20 66 -6 17 -4 21 7 16 8 -3 15 0 15 6 0 7 3 37 7
67 4 38 3 49 -3 35 -6 -11 -19 -31 -30 -45 -16 -20 -21 -21 -21 -8 0 9 7 21
16 26 11 6 15 17 11 31 -3 14 0 21 9 21 19 0 18 30 -3 60 -16 24 -16 24 0 11
28 -23 32 -3 7 32 -13 17 -17 26 -8 20 18 -15 32 -5 18 12 -6 7 -11 30 -12 51
-1 21 -3 33 -6 26 -3 -9 -9 -8 -25 3 -30 21 -34 19 -41 -17 -4 -18 -20 -46
-36 -62 -17 -16 -30 -33 -30 -38 0 -4 -6 -8 -14 -8 -7 0 -16 -10 -19 -22 -4
-12 -9 -20 -12 -17 -3 3 1 21 9 40 9 19 16 27 16 19 1 -8 8 0 16 18 8 17 21
32 29 32 9 0 15 9 15 23 0 17 -2 19 -10 7 -5 -8 -11 -12 -15 -9 -9 10 -13 129
-4 129 5 0 6 7 3 15 -4 11 0 15 16 15 13 0 20 5 18 12 -3 7 -15 13 -29 13 -16
0 -24 6 -26 20 -2 11 0 14 3 8 11 -25 20 -13 16 20 -3 17 -13 40 -23 50 -23
21 -24 37 -5 37 20 0 29 -16 43 -75 10 -42 12 -45 10 -15 0 19 2 40 5 46 4 6
-1 18 -12 26 -10 9 -26 43 -36 75 -10 32 -29 70 -42 85 -13 15 -34 42 -46 61
-22 36 -79 89 -93 86 -39 -7 -77 5 -109 33 -32 28 -34 33 -18 39 16 7 15 8 -5
8 -14 1 -56 17 -95 36 -77 37 -133 55 -123 38 4 -6 24 -13 44 -17 39 -7 81
-31 71 -42 -4 -3 -27 -6 -53 -6 -37 0 -45 -3 -41 -14 3 -9 1 -12 -4 -9 -6 3
-10 14 -10 24 0 11 -19 28 -51 46 -33 18 -47 31 -41 37 6 6 17 6 30 -1 31 -16
37 -13 18 8 -25 28 -113 63 -138 55 -15 -4 -18 -3 -13 7 6 9 3 11 -8 6 -19 -7
-67 11 -67 25 0 4 -10 7 -22 7 -17 -1 -19 -2 -5 -6 9 -2 17 -8 17 -13 0 -4 14
-13 30 -20 17 -7 33 -17 36 -21 11 -19 -16 -7 -71 30 -32 22 -64 37 -72 34
-12 -5 -12 -7 -1 -15 21 -14 -42 3 -92 25 -57 25 -67 28 -109 28 -19 0 -71 8
-114 19 -44 11 -94 20 -111 20 -17 0 -74 6 -126 14 -52 8 -131 20 -175 27 -44
7 -96 14 -115 15 -19 1 -71 11 -114 23 -87 23 -122 26 -131 11 -4 -6 7 -10 27
-10 18 0 46 -7 62 -15 15 -8 41 -15 57 -15 31 0 99 -29 99 -42 0 -13 -84 -9
-105 5 -11 8 -33 22 -50 32 l-30 17 33 -31 c17 -17 32 -32 32 -35 0 -2 -16 -6
-37 -9 -30 -5 -41 -2 -69 22 l-32 29 34 7 c51 9 32 23 -25 17 -44 -4 -56 0
-106 31 -31 19 -52 37 -48 39 4 3 1 3 -7 1 -45 -12 -100 -14 -118 -4 -15 8
-27 8 -46 0 -17 -8 -33 -8 -54 -1 -20 7 -43 7 -74 0 -42 -10 -47 -9 -77 18
-29 25 -30 29 -14 35 30 12 38 10 78 -16 42 -29 57 -27 27 3 -26 26 -58 36
-110 33 -41 -2 -112 29 -112 48 0 10 -64 29 -118 35 -24 2 -52 12 -63 22 -11
10 -19 12 -19 6 0 -25 -59 -12 -92 19 l-33 31 35 -6 c24 -3 28 -2 15 3 -41 17
-121 33 -155 32 -20 -1 -44 5 -55 13 -12 8 -33 12 -56 9 -32 -5 -42 0 -75 31
-38 34 -38 35 -14 36 14 0 38 -7 54 -15 42 -22 57 -17 16 5 -19 11 -50 19 -68
20 -18 0 -43 5 -55 12 -12 7 -38 13 -57 15 -47 3 -77 21 -92 53 -12 28 -57 50
-113 57 -16 2 -36 10 -45 19 -13 13 -13 14 5 8 16 -5 17 -4 9 5 -15 17 -54 -3
-55 -27 0 -9 -3 -12 -5 -5 -3 6 2 28 11 49 8 20 13 39 10 42 -3 3 -5 2 -5 -1
0 -4 -18 4 -40 18 -22 14 -46 25 -55 25 -8 0 -15 4 -15 8 0 5 -32 21 -72 36
-68 27 -125 59 -140 80 -3 6 -18 11 -32 13 -20 3 -29 -2 -36 -19 -9 -19 -10
-15 -6 20 4 42 -8 58 -18 24 -6 -17 -16 -14 -101 29 -85 44 -97 47 -125 37
-17 -5 -34 -8 -37 -4 -4 3 -1 6 7 6 19 0 -8 30 -29 31 -13 0 -12 2 3 8 20 8
18 9 -193 95 -73 29 -82 32 -58 14 16 -12 15 -13 -7 -13 -13 0 -22 3 -20 6 5
8 -16 26 -36 31 -8 2 -18 9 -21 17 -4 10 -10 5 -19 -16 -14 -31 -15 -31 -47
-18 -18 8 -33 13 -33 11 0 -2 -25 9 -56 25 -31 15 -63 25 -72 22 -9 -4 -13 -2
-9 4 6 10 -30 23 -78 28 -10 1 -21 8 -23 14 -2 6 -10 11 -18 11 -8 0 -14 4
-14 8 0 4 -36 19 -81 32 -44 14 -83 28 -85 32 -3 5 -16 8 -30 8 -21 0 -24 4
-19 20 5 14 2 20 -9 20 -9 0 -16 -4 -16 -10 0 -14 -27 -13 -32 2 -2 6 -13 -4
-24 -23z m-3634 -234 c0 -8 -2 -15 -4 -15 -2 0 -6 7 -10 15 -3 8 -1 15 4 15 6
0 10 -7 10 -15z m4406 -10 c10 -8 25 -15 33 -15 11 0 9 4 -5 15 -18 14 -17 15
8 4 14 -6 24 -17 22 -24 -6 -15 70 -50 87 -40 8 5 10 4 5 -3 -4 -7 -13 -12
-21 -12 -23 0 -165 68 -165 79 0 15 13 14 36 -4z m-4238 -129 c34 -16 60 -31
58 -33 -14 -14 -225 117 -226 140 0 4 24 -12 53 -35 29 -24 80 -56 115 -72z
m4402 34 c0 -5 -2 -10 -4 -10 -3 0 -8 5 -11 10 -3 6 -1 10 4 10 6 0 11 -4 11
-10z m-1028 -32 c-7 -7 -12 -8 -12 -2 0 14 12 26 19 19 2 -3 -1 -11 -7 -17z
m-21 -51 c-10 -9 -11 -8 -5 6 3 10 9 15 12 12 3 -3 0 -11 -7 -18z m1356 -27
c14 -11 22 -20 17 -20 -12 1 -61 39 -51 40 5 0 20 -9 34 -20z m-4522 0 c3 -6
-1 -7 -9 -4 -18 7 -21 14 -7 14 6 0 13 -4 16 -10z m42 -16 c-3 -3 -12 -4 -19
-1 -8 3 -5 6 6 6 11 1 17 -2 13 -5z m43 -14 c8 -5 11 -10 5 -10 -5 0 -17 5
-25 10 -8 5 -10 10 -5 10 6 0 17 -5 25 -10z m117 -36 c-3 -3 -12 -4 -19 -1 -8
3 -5 6 6 6 11 1 17 -2 13 -5z m43 -14 c8 -5 11 -10 5 -10 -5 0 -17 5 -25 10
-8 5 -10 10 -5 10 6 0 17 -5 25 -10z m235 -81 c5 -5 -6 -4 -25 2 -45 15 -54
24 -15 15 17 -4 34 -12 40 -17z m159 -48 c4 -5 -3 -7 -14 -4 -23 6 -26 13 -6
13 8 0 17 -4 20 -9z m2491 -34 c6 -28 7 -30 15 -12 4 12 16 27 26 35 18 15 18
14 1 -12 -10 -16 -15 -28 -11 -28 4 0 1 -7 -6 -15 -7 -8 -16 -13 -20 -10 -4 3
-13 -1 -19 -9 -9 -10 -8 -16 4 -26 8 -7 12 -17 9 -22 -3 -5 -15 -1 -27 9 -11
10 -17 12 -13 6 4 -8 1 -13 -8 -13 -9 0 -16 5 -16 10 0 6 -8 10 -17 10 -17 1
-17 1 0 11 9 5 21 8 25 5 10 -6 9 25 -2 42 -5 8 -1 12 13 12 10 0 22 -6 24
-12 3 -8 6 -6 6 5 1 9 -5 17 -13 17 -8 0 -18 4 -21 10 -4 6 1 7 11 3 13 -5 16
-3 11 10 -4 11 -2 14 7 11 8 -3 17 -20 21 -37z m-2418 17 c-3 -3 -12 -4 -19
-1 -8 3 -5 6 6 6 11 1 17 -2 13 -5z m2490 -26 c-3 -8 -6 -5 -6 6 -1 11 2 17 5
13 3 -3 4 -12 1 -19z m1811 -38 c32 -30 27 -34 -8 -8 -16 12 -30 23 -30 25 0
9 19 1 38 -17z m-1963 0 c3 -5 -1 -10 -10 -10 -9 0 -13 5 -10 10 3 6 8 10 10
10 2 0 7 -4 10 -10z m200 0 c-3 -5 -10 -10 -16 -10 -5 0 -9 5 -9 10 0 6 7 10
16 10 8 0 12 -4 9 -10z m1883 -35 l37 -34 -35 -1 c-41 0 -49 5 -73 43 -17 27
-17 27 8 27 15 0 40 -14 63 -35z m-1959 9 c12 -12 -8 -10 -34 2 l-30 14 30 -6
c16 -3 32 -8 34 -10z m-2132 -10 c-3 -3 -12 -4 -19 -1 -8 3 -5 6 6 6 11 1 17
-2 13 -5z m1981 -16 c-2 -6 -10 -14 -16 -16 -7 -2 -10 2 -6 12 7 18 28 22 22
4z m-1893 -16 c-3 -3 -11 0 -18 7 -9 10 -8 11 6 5 10 -3 15 -9 12 -12z m1435
14 c0 -3 -4 -8 -10 -11 -5 -3 -10 -1 -10 4 0 6 5 11 10 11 6 0 10 -2 10 -4z
m677 -8 c6 -5 16 -21 21 -37 9 -25 8 -29 -4 -24 -8 3 -13 12 -10 19 6 14 -9
20 -17 7 -2 -5 -3 -3 -1 3 1 6 -2 17 -6 25 -7 11 -10 9 -16 -6 -4 -11 -16 -31
-27 -45 -16 -20 -19 -21 -13 -5 16 42 17 65 2 59 -8 -3 -16 -2 -19 3 -6 10 74
11 90 1z m-146 -5 c0 -5 2 -18 3 -30 1 -12 -1 -20 -6 -17 -5 4 -7 12 -4 20 3
8 1 14 -4 14 -6 0 -10 5 -10 10 0 11 20 14 21 3z m-31 -13 c0 -5 -2 -10 -4
-10 -3 0 -8 5 -11 10 -3 6 -1 10 4 10 6 0 11 -4 11 -10z m90 -4 c0 -3 -4 -8
-10 -11 -5 -3 -10 -1 -10 4 0 6 5 11 10 11 6 0 10 -2 10 -4z m-100 -27 c0 -6
-4 -7 -10 -4 -5 3 -10 11 -10 16 0 6 5 7 10 4 6 -3 10 -11 10 -16z m2140 1 c0
-5 -4 -10 -10 -10 -5 0 -10 5 -10 10 0 6 5 10 10 10 6 0 10 -4 10 -10z m-2775
-10 c3 -5 -1 -10 -10 -10 -9 0 -13 5 -10 10 3 6 8 10 10 10 2 0 7 -4 10 -10z
m355 0 c0 -5 -7 -10 -15 -10 -8 0 -15 5 -15 10 0 6 7 10 15 10 8 0 15 -4 15
-10z m2558 -25 c33 -31 35 -34 15 -35 -12 0 -28 -3 -36 -6 -9 -3 -26 10 -47
35 l-32 41 31 0 c22 0 43 -11 69 -35z m-2328 17 c0 -5 -7 -9 -15 -9 -8 0 -15
4 -15 9 0 4 7 8 15 8 8 0 15 -4 15 -8z m63 -20 c3 -4 -7 -8 -21 -8 -15 -1 -21
1 -14 3 10 4 10 8 0 21 -11 13 -10 14 9 4 12 -7 24 -15 26 -20z m64 6 c-3 -8
-6 -5 -6 6 -1 11 2 17 5 13 3 -3 4 -12 1 -19z m2093 12 c0 -5 -2 -10 -4 -10
-3 0 -8 5 -11 10 -3 6 -1 10 4 10 6 0 11 -4 11 -10z m-2004 -15 c-18 -14 -18
-15 -2 -15 9 0 14 -4 11 -10 -9 -15 -22 -12 -29 7 -6 16 9 33 29 33 6 -1 1 -7
-9 -15z m78 5 c34 13 36 13 36 -1 0 -13 -38 -49 -51 -49 -5 0 -6 8 -2 18 6 16
5 16 -14 0 -27 -24 -30 -23 -25 12 3 23 7 28 17 20 9 -7 21 -7 39 0z m-244
-52 c0 -14 -15 -8 -45 17 l-30 25 37 -17 c21 -10 38 -21 38 -25z m-775 12 c3
-5 1 -10 -4 -10 -6 0 -11 5 -11 10 0 6 2 10 4 10 3 0 8 -4 11 -10z m359 1 c3
-4 3 -11 0 -14 -8 -8 -34 3 -34 14 0 11 27 12 34 0z m2573 3 c-3 -3 -12 -4
-19 -1 -8 3 -5 6 6 6 11 1 17 -2 13 -5z m-2077 -30 c0 -8 -4 -12 -10 -9 -5 3
-10 13 -10 21 0 8 5 12 10 9 6 -3 10 -13 10 -21z m-90 -4 c13 -8 13 -10 -2
-10 -9 0 -20 5 -23 10 -8 13 5 13 25 0z m485 0 c-3 -5 -11 -10 -16 -10 -6 0
-7 5 -4 10 3 6 11 10 16 10 6 0 7 -4 4 -10z m68 -5 c-3 -9 -8 -14 -10 -11 -3
3 -2 9 2 15 9 16 15 13 8 -4z m-588 -5 c3 -5 16 -10 29 -10 12 0 33 -11 46
-25 l23 -25 -25 0 c-34 0 -42 -11 -18 -27 11 -8 20 -23 20 -35 0 -19 -2 -19
-21 6 -11 14 -27 26 -35 26 -18 0 -14 23 6 32 12 5 12 7 -2 7 -10 1 -18 6 -18
12 0 7 10 9 26 5 17 -5 23 -3 19 4 -3 5 -17 10 -29 10 -13 0 -29 7 -36 15 -8
9 -9 15 -2 15 6 0 14 -4 17 -10z m245 6 c0 -3 -4 -8 -10 -11 -5 -3 -10 -1 -10
4 0 6 5 11 10 11 6 0 10 -2 10 -4z m2146 -12 c18 -14 18 -14 -6 -3 -31 14 -36
19 -24 19 6 0 19 -7 30 -16z m144 -26 c28 -33 25 -38 -22 -37 -30 2 -35 3 -15
6 15 2 27 11 27 18 0 16 -43 31 -58 21 -5 -3 -16 2 -23 11 -13 15 -10 16 29
11 27 -4 49 -14 62 -30z m-3395 12 c3 -5 -1 -10 -9 -10 -9 0 -16 5 -16 10 0 6
4 10 9 10 6 0 13 -4 16 -10z m353 -8 c3 -9 -2 -13 -14 -10 -9 1 -19 9 -22 16
-3 9 2 13 14 10 9 -1 19 -9 22 -16z m336 12 c23 -9 20 -24 -4 -24 -11 0 -20 7
-20 15 0 17 2 18 24 9z m443 -21 c-3 -3 -11 -2 -17 2 -9 6 -9 10 1 16 14 8 27
-7 16 -18z m2360 8 c10 -5 27 -19 38 -31 l20 -23 -49 5 c-35 4 -55 13 -72 31
-13 15 -24 29 -24 32 0 7 67 -3 87 -14z m-2697 -3 c0 -6 7 -19 16 -29 9 -10
11 -20 6 -23 -12 -7 -27 11 -36 42 -5 13 -3 22 3 22 6 0 11 -5 11 -12z m700
-8 c0 -5 -5 -10 -11 -10 -5 0 -7 5 -4 10 3 6 8 10 11 10 2 0 4 -4 4 -10z
m-490 -24 c0 -3 -4 -8 -10 -11 -5 -3 -10 -1 -10 4 0 6 5 11 10 11 6 0 10 -2
10 -4z m237 -13 c4 3 8 -10 7 -29 -2 -34 9 -46 20 -21 3 8 9 7 20 -7 8 -10 13
-23 9 -29 -3 -5 -9 -4 -13 3 -5 9 -9 9 -14 1 -11 -17 -36 -13 -36 5 0 11 -5
14 -16 10 -12 -5 -14 -1 -9 15 5 14 3 19 -3 15 -15 -9 -42 4 -42 21 0 8 5 11
10 8 6 -3 10 -1 10 5 0 7 7 10 15 6 8 -3 15 0 15 7 0 8 3 8 9 -2 5 -7 13 -11
18 -8z m-1377 -3 c0 -5 -4 -10 -9 -10 -6 0 -13 5 -16 10 -3 6 1 10 9 10 9 0
16 -4 16 -10z m348 -8 c3 -9 -2 -13 -14 -10 -9 1 -19 9 -22 16 -3 9 2 13 14
10 9 -1 19 -9 22 -16z m1142 -3 c0 -11 -4 -17 -10 -14 -5 3 -10 1 -10 -4 0 -6
-4 -11 -9 -11 -5 0 -4 11 2 25 14 30 27 32 27 4z m200 12 c0 -5 -7 -11 -15
-15 -15 -5 -20 5 -8 17 9 10 23 9 23 -2z m60 5 c0 -3 -4 -8 -10 -11 -5 -3 -10
-1 -10 4 0 6 5 11 10 11 6 0 10 -2 10 -4z m-1050 -22 c0 -9 -7 -14 -17 -12
-25 5 -28 28 -4 28 12 0 21 -6 21 -16z m410 -16 c0 -5 -4 -8 -10 -8 -5 0 -10
10 -10 23 0 18 2 19 10 7 5 -8 10 -18 10 -22z m656 -26 c-13 -14 -18 -14 -28
-3 -10 11 -10 12 0 7 6 -4 12 -2 12 4 0 6 5 8 10 5 6 -3 11 4 11 17 1 19 2 19
6 4 3 -10 -2 -26 -11 -34z m-116 28 c0 -5 -5 -10 -11 -10 -5 0 -7 5 -4 10 3 6
8 10 11 10 2 0 4 -4 4 -10z m88 -3 c-16 -6 -28 -14 -28 -19 0 -4 -4 -8 -10 -8
-14 0 -13 27 1 32 6 2 23 4 38 5 l26 1 -27 -11z m1997 -14 c32 -35 32 -38 -6
-41 -32 -3 -62 16 -80 50 -8 16 -5 18 25 18 25 0 42 -8 61 -27z m-2727 -33 c7
0 12 -9 12 -20 0 -17 -6 -13 -35 19 -19 21 -35 42 -35 47 1 5 11 -3 23 -18 13
-16 28 -28 35 -28z m2825 38 c26 -13 47 -40 41 -50 -11 -17 -68 1 -97 31 l-32
31 33 0 c18 0 43 -5 55 -12z m-2302 -21 c-10 -9 -11 -8 -5 6 3 10 9 15 12 12
3 -3 0 -11 -7 -18z m2439 -10 l29 -25 -30 -4 c-33 -5 -99 33 -99 58 0 15 72
-6 100 -29z m-3762 5 c2 -7 -3 -12 -12 -12 -9 0 -16 7 -16 16 0 17 22 14 28
-4z m352 -7 c0 -8 -9 -15 -20 -15 -11 0 -20 7 -20 15 0 8 9 15 20 15 11 0 20
-7 20 -15z m350 -11 c0 -17 -36 -19 -46 -3 -8 14 14 29 33 22 7 -3 13 -11 13
-19z m210 16 c0 -5 -4 -10 -10 -10 -5 0 -10 5 -10 10 0 6 5 10 10 10 6 0 10
-4 10 -10z m60 -25 c0 -5 -5 -3 -10 5 -5 8 -10 20 -10 25 0 6 5 3 10 -5 5 -8
10 -19 10 -25z m280 -19 c0 -16 27 -29 41 -20 5 3 9 0 9 -5 0 -6 -7 -11 -15
-11 -22 0 -66 30 -59 41 8 14 24 11 24 -5z m-1043 -21 c3 -9 3 -18 1 -21 -9
-9 -38 8 -38 22 0 19 29 18 37 -1z m3499 7 c8 -4 -3 -7 -26 -7 -22 0 -40 2
-40 5 0 9 51 11 66 2z m147 -11 c18 -18 1 -22 -29 -6 -21 10 -30 11 -33 3 -7
-21 31 -39 69 -32 27 5 32 4 24 -5 -6 -7 -28 -11 -49 -9 -28 2 -44 11 -61 34
l-24 30 47 -2 c25 -2 51 -8 56 -13z m-3295 -8 c5 -17 -26 -29 -40 -15 -6 6 -7
15 -3 22 9 14 37 9 43 -7z m639 11 c-3 -3 -12 -4 -19 -1 -8 3 -5 6 6 6 11 1
17 -2 13 -5z m-322 -22 c-3 -3 -11 0 -18 7 -9 10 -8 11 6 5 10 -3 15 -9 12
-12z m346 4 c-9 -11 -9 -15 1 -19 9 -4 9 -6 1 -6 -6 -1 -15 4 -18 9 -8 12 2
30 17 30 7 0 7 -5 -1 -14z m109 -2 c0 -8 -5 -12 -10 -9 -6 4 -8 11 -5 16 9 14
15 11 15 -7z m35 -21 c-9 -8 -18 -13 -21 -10 -8 8 19 36 29 30 4 -2 0 -11 -8
-20z m-105 -3 c0 -5 -5 -10 -11 -10 -5 0 -7 5 -4 10 3 6 8 10 11 10 2 0 4 -4
4 -10z m2448 1 c11 -7 11 -9 -1 -14 -16 -6 -27 0 -27 15 0 10 11 10 28 -1z
m-2408 -16 c0 -9 -9 -15 -21 -15 -15 0 -19 -4 -15 -16 5 -14 4 -15 -9 -4 -8 7
-24 10 -35 7 -11 -3 -20 -1 -20 4 0 5 10 9 23 9 35 0 67 11 61 21 -3 5 0 9 5
9 6 0 11 -7 11 -15z m-893 -12 c3 -7 -4 -9 -16 -6 -12 3 -18 9 -15 15 7 11 26
6 31 -9z m578 7 c3 -5 2 -10 -4 -10 -5 0 -13 5 -16 10 -3 6 -2 10 4 10 5 0 13
-4 16 -10z m3329 -25 c37 -24 32 -35 -14 -35 -31 0 -47 7 -72 31 -19 18 -26
28 -15 25 9 -3 17 -1 17 4 0 12 51 -3 84 -25z m-3556 2 c2 -12 -3 -17 -17 -17
-12 0 -21 6 -21 13 0 31 32 34 38 4z m583 -9 c-11 -10 -13 -10 -7 0 5 7 1 12
-11 12 -15 0 -16 2 -3 10 21 13 38 -6 21 -22z m2769 21 c0 -8 4 -8 14 0 17 14
53 2 79 -27 19 -20 18 -21 -18 -28 -31 -6 -40 -3 -66 22 -30 29 -37 44 -19 44
6 0 10 -5 10 -11z m-60 -10 c0 -6 -8 -8 -19 -4 -11 3 -22 1 -25 -4 -9 -15 34
-35 69 -33 23 2 27 1 15 -7 -24 -17 -58 -13 -81 10 -16 16 -18 23 -8 35 13 16
49 19 49 3z m24 -15 c3 -8 2 -12 -4 -9 -6 3 -10 10 -10 16 0 14 7 11 14 -7z
m-2613 -17 c-10 -9 -11 -8 -5 6 3 10 9 15 12 12 3 -3 0 -11 -7 -18z m-364 -3
c-3 -3 -12 -4 -19 -1 -8 3 -5 6 6 6 11 1 17 -2 13 -5z m2834 -22 c-13 -2 -27
0 -32 5 -6 6 3 7 23 4 28 -4 29 -6 9 -9z m-2971 -22 c0 -21 -24 -28 -35 -10
-8 14 3 30 21 30 8 0 14 -9 14 -20z m197 14 c-3 -3 -12 -4 -19 -1 -8 3 -5 6 6
6 11 1 17 -2 13 -5z m3168 -4 c3 -5 1 -10 -4 -10 -6 0 -11 5 -11 10 0 6 2 10
4 10 3 0 8 -4 11 -10z m62 4 c-3 -3 -12 -4 -19 -1 -8 3 -5 6 6 6 11 1 17 -2
13 -5z m378 -70 c-42 -18 -53 -17 -93 8 l-35 22 39 11 c34 10 44 9 79 -8 l40
-20 -30 -13z m87 41 c28 -1 53 -6 57 -11 3 -5 20 -10 36 -11 135 -10 235 -25
235 -35 0 -5 15 -6 33 -3 24 5 39 2 49 -9 9 -8 18 -13 20 -10 10 9 88 -8 81
-19 -4 -6 3 -8 18 -4 14 4 38 2 54 -2 17 -5 24 -10 18 -10 -22 -2 -14 -16 17
-29 36 -16 38 -27 8 -36 -42 -11 -83 -6 -105 13 -13 11 -23 21 -23 24 0 3 19
8 42 12 32 6 38 9 25 17 -10 5 -24 5 -34 0 -39 -20 -83 -22 -118 -5 -24 12
-31 19 -23 25 8 5 -2 8 -24 8 -20 0 -58 9 -84 20 -26 11 -49 18 -52 15 -3 -3
9 -10 26 -16 42 -15 40 -23 -10 -36 -34 -9 -47 -8 -74 5 l-34 16 38 18 c24 12
28 16 12 12 -77 -17 -109 -16 -146 5 -20 12 -41 20 -47 19 -7 -1 -29 4 -51 11
-27 9 -34 16 -25 22 7 4 17 5 22 2 5 -3 32 -7 59 -8z m-3625 -1 c-3 -3 -12 -4
-19 -1 -8 3 -5 6 6 6 11 1 17 -2 13 -5z m2988 -12 c-3 -3 -11 0 -18 7 -9 10
-8 11 6 5 10 -3 15 -9 12 -12z m-2768 2 c-3 -3 -12 -4 -19 -1 -8 3 -5 6 6 6
11 1 17 -2 13 -5z m2938 -14 c-3 -5 -11 -10 -16 -10 -6 0 -7 5 -4 10 3 6 11
10 16 10 6 0 7 -4 4 -10z m253 -18 c6 -9 12 -12 12 -8 0 4 5 4 12 0 8 -5 -53
-32 -79 -34 -9 -1 -53 50 -44 51 26 3 30 4 37 12 11 10 46 -2 62 -21z m-361 2
c-3 -3 -12 -4 -19 -1 -8 3 -5 6 6 6 11 1 17 -2 13 -5z m-127 -14 c-8 -5 -22
-9 -30 -9 -10 0 -8 3 5 9 27 12 43 12 25 0z m725 -2 l26 -12 -23 -13 c-40 -22
-118 -11 -118 17 0 20 77 25 115 8z m-3266 -24 c3 -16 1 -17 -13 -5 -19 16
-21 34 -3 29 6 -3 14 -13 16 -24z m3116 -4 c4 -6 -6 -10 -22 -9 -25 0 -26 1
-8 9 11 5 21 9 22 9 1 1 5 -3 8 -9z m17 -42 c-24 -11 -49 -17 -55 -15 -13 5 0
11 46 22 25 5 27 8 15 22 -12 15 -11 15 12 3 l25 -14 -43 -18z m258 19 c21
-14 20 -15 -24 -32 -44 -17 -46 -17 -82 5 l-37 23 34 12 c41 14 81 11 109 -8z
m-530 -1 c-7 -7 -13 -7 -20 0 -6 6 -3 10 10 10 13 0 16 -4 10 -10z m197 -1 c9
-25 -2 -27 -22 -5 -17 18 -17 20 -1 20 9 0 19 -7 23 -15z m572 -12 l24 -16
-39 -13 c-51 -18 -53 -18 -94 8 l-35 21 35 13 c39 14 73 10 109 -13z m291 -8
c7 -8 23 -15 37 -15 14 0 21 -4 18 -10 -3 -5 -15 -10 -25 -10 -24 0 -90 31
-90 42 0 14 47 9 60 -7z m-3950 -11 c0 -8 -4 -12 -10 -9 -5 3 -10 10 -10 16 0
5 5 9 10 9 6 0 10 -7 10 -16z m3505 -16 c6 -6 1 -6 -15 0 -14 5 -31 7 -39 4
-9 -3 -11 0 -7 7 8 12 43 6 61 -11z m255 -20 c0 -5 -4 -8 -10 -8 -5 0 -10 5
-10 11 0 6 -8 8 -17 5 -10 -3 -25 -1 -33 5 -13 9 -12 10 2 5 10 -3 20 -1 23 4
6 10 45 -9 45 -22z m381 -31 c-16 -16 -41 16 -34 43 5 18 7 18 25 -6 16 -20
18 -28 9 -37z m50 53 c5 0 9 -4 9 -10 0 -16 -37 -11 -44 6 -5 12 -2 15 10 10
8 -3 20 -6 25 -6z m-4217 -21 c-8 -14 -24 -10 -24 6 0 9 6 12 15 9 8 -4 12
-10 9 -15z m3216 -1 c0 -6 -6 -5 -15 2 -8 7 -15 14 -15 16 0 2 7 1 15 -2 8 -4
15 -11 15 -16z m885 -14 c15 -14 25 -28 22 -31 -7 -7 -87 38 -87 49 0 17 38 7
65 -18z m-568 5 c-20 -12 -67 -22 -67 -14 0 4 56 23 75 24 6 0 2 -4 -8 -10z
m503 -21 l31 -23 -28 -7 c-54 -16 -68 -15 -95 5 -30 22 -38 40 -14 31 8 -3 20
1 27 9 18 19 40 14 79 -15z m-230 12 c-8 -5 -19 -10 -25 -10 -5 0 -3 5 5 10 8
5 20 10 25 10 6 0 3 -5 -5 -10z m-3850 -40 c-19 -13 -30 -13 -30 0 0 6 10 10
23 10 18 0 19 -2 7 -10z m4110 -50 c0 -5 -5 -10 -11 -10 -5 0 -7 5 -4 10 3 6
8 10 11 10 2 0 4 -4 4 -10z m465 -35 c26 -22 27 -25 10 -25 -11 0 -29 -3 -40
-6 -19 -5 -94 41 -95 58 0 10 63 15 80 6 8 -4 29 -19 45 -33z m-275 25 c0 -5
-5 -10 -11 -10 -5 0 -7 5 -4 10 3 6 8 10 11 10 2 0 4 -4 4 -10z m-2670 -20 c0
-5 -2 -10 -4 -10 -3 0 -8 5 -11 10 -3 6 -1 10 4 10 6 0 11 -4 11 -10z m-1417
-20 c-3 -12 -8 -19 -11 -16 -5 6 5 36 12 36 2 0 2 -9 -1 -20z m1070 -30 c3
-10 -1 -24 -7 -29 -10 -8 -11 -3 -8 19 5 35 8 37 15 10z m-1089 -15 c-4 -8 -8
-15 -10 -15 -2 0 -4 7 -4 15 0 8 4 15 10 15 5 0 7 -7 4 -15z m1290 -1 c4 -9 4
-19 1 -22 -6 -6 -35 18 -35 29 0 16 28 10 34 -7z m3187 -25 c13 -25 5 -24 -31
3 -25 18 -32 19 -45 8 -12 -10 -19 -10 -27 -2 -7 7 -8 15 -4 19 4 4 11 1 16
-7 8 -12 10 -12 15 2 5 14 12 15 36 6 16 -5 34 -19 40 -29z m107 -16 c39 -44
40 -55 5 -47 -38 9 -37 9 -74 55 l-33 41 35 -6 c21 -5 47 -21 67 -43z m-2921
31 c-3 -3 -12 -4 -19 -1 -8 3 -5 6 6 6 11 1 17 -2 13 -5z m-1487 -8 c0 -3 -4
-8 -10 -11 -5 -3 -10 -1 -10 4 0 6 5 11 10 11 6 0 10 -2 10 -4z m55 -6 c3 -5
2 -10 -4 -10 -6 0 -8 -7 -5 -15 5 -11 2 -13 -10 -9 -18 7 -18 7 -10 28 7 18
20 21 29 6z m885 -55 c11 -13 7 -15 -24 -15 -35 0 -49 13 -23 23 22 9 34 7 47
-8z m390 11 c0 -3 -4 -8 -10 -11 -5 -3 -10 -1 -10 4 0 6 5 11 10 11 6 0 10 -2
10 -4z m-350 -47 c0 -5 -7 -9 -15 -9 -9 0 -12 6 -9 15 6 15 24 11 24 -6z
m3493 -17 c14 -16 47 -83 47 -97 0 -12 -38 -3 -52 13 -19 21 -48 77 -48 92 0
16 36 12 53 -8z m-4193 -17 c0 -8 -7 -15 -15 -15 -8 0 -15 7 -15 15 0 8 7 15
15 15 8 0 15 -7 15 -15z m865 5 c-3 -5 -12 -10 -18 -10 -7 0 -6 4 3 10 19 12
23 12 15 0z m-575 -194 c0 -3 -4 -8 -10 -11 -5 -3 -10 -1 -10 4 0 6 5 11 10
11 6 0 10 -2 10 -4z m305 -46 c-3 -5 -12 -10 -18 -10 -7 0 -6 4 3 10 19 12 23
12 15 0z m-838 -26 c-3 -3 -12 -4 -19 -1 -8 3 -5 6 6 6 11 1 17 -2 13 -5z
m164 -21 c-8 -15 -10 -15 -11 -2 0 17 10 32 18 25 2 -3 -1 -13 -7 -23z m808
-21 c8 -25 7 -32 -5 -32 -8 0 -14 4 -14 9 0 5 -3 24 -6 42 -8 43 12 28 25 -19z
m-221 29 c11 -7 11 -9 -1 -14 -16 -6 -27 0 -27 15 0 10 11 10 28 -1z m482 -25
c0 -2 -7 -7 -16 -10 -8 -3 -12 -2 -9 4 6 10 25 14 25 6z m-390 -10 c0 -2 -9
-6 -20 -9 -11 -3 -18 -1 -14 4 5 9 34 13 34 5z m-240 -15 c0 -12 -20 -25 -27
-18 -7 7 6 27 18 27 5 0 9 -4 9 -9z m590 -1 c0 -5 -7 -10 -16 -10 -8 0 -12 5
-9 10 3 6 10 10 16 10 5 0 9 -4 9 -10z m-399 -12 c1 -7 1 -17 0 -22 -1 -4 4
-14 10 -22 14 -17 4 -33 -11 -18 -15 15 -24 74 -11 74 6 0 12 -6 12 -12z m684
-30 c-11 -6 -30 -20 -42 -31 -29 -26 -30 -11 -1 20 12 13 31 23 42 23 21 -1
21 -1 1 -12z m385 2 c0 -5 -4 -10 -10 -10 -5 0 -10 5 -10 10 0 6 5 10 10 10 6
0 10 -4 10 -10z m-818 -20 c-12 -11 -27 -20 -34 -20 -7 0 -2 9 12 20 33 26 50
26 22 0z m-572 5 c0 -9 -58 -34 -64 -28 -4 4 8 12 26 19 18 6 34 12 36 13 1 0
2 -1 2 -4z m208 -2 c-10 -2 -26 -2 -35 0 -10 3 -2 5 17 5 19 0 27 -2 18 -5z
m2300 -18 c-3 -3 -9 2 -12 12 -6 14 -5 15 5 6 7 -7 10 -15 7 -18z m-2258 -26
c0 -28 -15 -23 -16 6 -1 14 2 22 7 19 5 -3 9 -14 9 -25z m1800 27 c0 -3 -4 -8
-10 -11 -5 -3 -10 -1 -10 4 0 6 5 11 10 11 6 0 10 -2 10 -4z m-1882 -38 c6
-17 9 -34 6 -37 -8 -9 -34 30 -34 51 0 28 14 21 28 -14z m1492 16 c0 -9 -9
-18 -20 -21 -44 -12 -32 -96 12 -86 22 4 22 4 -2 -10 -23 -14 -26 -14 -43 11
-22 34 -15 70 21 99 32 27 32 27 32 7z m-439 -35 c-18 -16 -36 -27 -40 -24 -7
8 45 55 62 55 6 0 -4 -14 -22 -31z m564 20 c11 -16 1 -19 -13 -3 -7 8 -8 14
-3 14 5 0 13 -5 16 -11z m-1705 -43 c0 -5 -7 -1 -15 10 -8 10 -14 24 -14 29 0
6 6 1 14 -9 8 -11 15 -24 15 -30z m745 34 c-3 -5 -16 -15 -28 -21 -21 -10 -21
-9 2 10 25 23 36 27 26 11z m1495 0 c0 -5 -4 -10 -10 -10 -5 0 -10 5 -10 10 0
6 5 10 10 10 6 0 10 -4 10 -10z m1690 0 c0 -5 -4 -10 -10 -10 -5 0 -10 5 -10
10 0 6 5 10 10 10 6 0 10 -4 10 -10z m-3621 -27 c-7 -10 -15 -20 -16 -22 -2
-2 -3 5 -3 17 0 14 6 22 16 22 14 0 15 -3 3 -17z m-604 -3 c-3 -5 -10 -10 -16
-10 -5 0 -9 5 -9 10 0 6 7 10 16 10 8 0 12 -4 9 -10z m215 -19 c7 -17 10 -36
7 -43 -2 -7 -12 4 -21 26 -19 45 -19 46 -7 46 5 0 14 -13 21 -29z m2288 16
c15 6 15 5 3 -10 -19 -24 -31 -21 -30 6 0 12 3 17 5 10 3 -7 13 -9 22 -6z
m-260 -17 c7 -12 8 -20 2 -20 -5 0 -10 4 -10 10 0 5 -7 7 -15 4 -15 -6 -21 7
-8 19 10 11 17 8 31 -13z m-328 1 c0 -6 -4 -13 -10 -16 -5 -3 -10 1 -10 9 0 9
5 16 10 16 6 0 10 -4 10 -9z m-1817 -8 c3 -5 -5 -8 -18 -8 -13 0 -21 3 -18 8
2 4 10 7 18 7 8 0 16 -3 18 -7z m407 -3 c0 -5 -5 -10 -11 -10 -5 0 -7 5 -4 10
3 6 8 10 11 10 2 0 4 -4 4 -10z m381 -7 c-44 -18 -63 -57 -39 -81 7 -7 8 -12
2 -12 -6 0 -16 11 -22 25 -11 23 -9 29 13 50 13 14 32 25 42 24 13 0 14 -2 4
-6z m414 -14 c-4 -5 -12 -9 -19 -9 -8 0 -21 -10 -29 -22 l-16 -23 0 22 c-1 15
9 27 26 37 28 14 48 12 38 -5z m422 5 c2 -7 -5 -10 -20 -7 -18 4 -29 -2 -41
-18 l-16 -23 0 22 c0 13 6 22 15 22 8 0 15 5 15 11 0 14 42 7 47 -7z m-1587
-15 c0 -6 -4 -7 -10 -4 -5 3 -10 11 -10 16 0 6 5 7 10 4 6 -3 10 -11 10 -16z
m1965 11 c-3 -5 -11 -10 -16 -10 -6 0 -7 5 -4 10 3 6 11 10 16 10 6 0 7 -4 4
-10z m142 -5 c8 -22 -6 -33 -17 -15 -13 20 -12 30 0 30 6 0 13 -7 17 -15z
m-2202 -17 c1 -13 4 -33 9 -45 4 -13 3 -23 -2 -23 -11 0 -33 70 -26 82 10 15
19 8 19 -14z m399 -4 c9 -22 -3 -32 -14 -14 -12 19 -12 30 -1 30 5 0 12 -7 15
-16z m-497 -20 c-3 -3 -12 -4 -19 -1 -8 3 -5 6 6 6 11 1 17 -2 13 -5z m1323
-46 c0 -5 -4 -8 -10 -8 -5 0 -10 10 -10 23 0 18 2 19 10 7 5 -8 10 -18 10 -22z
m400 11 c0 -6 -4 -7 -10 -4 -5 3 -10 11 -10 16 0 6 5 7 10 4 6 -3 10 -11 10
-16z m-2000 7 c0 -3 -4 -8 -10 -11 -5 -3 -10 -1 -10 4 0 6 5 11 10 11 6 0 10
-2 10 -4z m1450 0 c0 -2 -7 -7 -16 -10 -8 -3 -12 -2 -9 4 6 10 25 14 25 6z
m434 -2 c9 -3 16 -10 16 -15 0 -6 -8 -6 -19 0 -10 6 -21 7 -25 4 -3 -3 -6 -1
-6 5 0 13 10 15 34 6z m-1287 -36 c-3 -7 -5 -2 -5 12 0 14 2 19 5 13 2 -7 2
-19 0 -25z m103 22 c0 -5 -2 -10 -4 -10 -3 0 -8 5 -11 10 -3 6 -1 10 4 10 6 0
11 -4 11 -10z m302 -12 c-7 -7 -12 -8 -12 -2 0 14 12 26 19 19 2 -3 -1 -11 -7
-17z m502 -4 c3 -8 2 -12 -4 -9 -6 3 -10 10 -10 16 0 14 7 11 14 -7z m526 12
c0 -3 -4 -8 -10 -11 -5 -3 -10 -1 -10 4 0 6 5 11 10 11 6 0 10 -2 10 -4z
m-1330 -30 c0 -2 -8 -10 -17 -17 -16 -13 -17 -12 -4 4 13 16 21 21 21 13z
m324 -45 c-6 -6 -11 1 -18 29 l-7 25 15 -25 c8 -14 12 -27 10 -29z m-410 24
c-4 -8 -8 -15 -10 -15 -2 0 -4 7 -4 15 0 8 4 15 10 15 5 0 7 -7 4 -15z m234
-90 c-3 -3 -9 2 -12 12 -6 14 -5 15 5 6 7 -7 10 -15 7 -18z m1688 9 c18 -14
18 -14 -6 -3 -31 14 -36 19 -24 19 6 0 19 -7 30 -16z m-2089 -16 c-3 -8 -6 -5
-6 6 -1 11 2 17 5 13 3 -3 4 -12 1 -19z m1970 -54 c-9 -10 -27 15 -21 31 7 17
8 16 16 -5 5 -13 7 -24 5 -26z m-178 -25 c-8 -5 -18 -9 -24 -9 -5 0 -4 4 3 8
8 5 10 16 5 28 -7 18 -6 18 12 1 15 -16 16 -20 4 -28z m91 32 c0 -6 -4 -12 -8
-15 -5 -3 -9 1 -9 9 0 8 4 15 9 15 4 0 8 -4 8 -9z m-160 -36 c-7 -9 -15 -13
-18 -10 -3 2 1 11 8 20 7 9 15 13 18 10 3 -2 -1 -11 -8 -20z m-2154 0 c-3 -8
-1 -15 4 -15 6 0 10 -4 10 -9 0 -5 -11 -4 -24 2 -13 7 -22 15 -19 19 2 5 9 6
14 3 5 -4 9 -1 9 4 0 6 3 11 6 11 3 0 4 -7 0 -15z m1937 2 c22 5 22 5 2 -10
-20 -15 -36 -7 -34 18 0 6 3 5 5 -1 3 -7 15 -10 27 -7z m447 7 c0 -9 -32 -33
-44 -34 -5 0 -1 9 10 19 19 20 34 26 34 15z m-568 -78 c-28 -33 -56 -55 -69
-56 -16 0 16 34 46 50 12 6 21 21 21 33 0 17 2 19 10 7 6 -10 4 -21 -8 -34z
m-242 11 c0 -2 -10 -12 -22 -23 l-23 -19 19 23 c18 21 26 27 26 19z m75 -36
c3 -5 1 -12 -5 -16 -5 -3 -10 1 -10 9 0 18 6 21 15 7z m-95 -26 c10 -12 10
-15 -4 -15 -9 0 -16 7 -16 15 0 8 2 15 4 15 2 0 9 -7 16 -15z m-721 2 c-2 -1
-13 -9 -24 -17 -19 -14 -19 -14 -6 3 7 9 18 17 24 17 6 0 8 -1 6 -3z m621 -34
c0 -3 -7 -3 -15 1 -8 3 -15 1 -15 -5 0 -6 -5 -7 -11 -3 -8 4 -7 9 2 14 12 8
39 3 39 -7z m-80 -28 c7 -9 8 -15 2 -15 -5 0 -12 7 -16 15 -3 8 -4 15 -2 15 2
0 9 -7 16 -15z m2361 -2 c13 -16 12 -17 -3 -4 -10 7 -18 15 -18 17 0 8 8 3 21
-13z m-2132 -2 c25 9 25 8 6 -6 -23 -18 -47 -16 -53 5 -3 12 -2 12 8 3 9 -8
21 -9 39 -2z m-722 -51 c3 -10 2 -11 -4 -4 -4 7 -17 14 -28 17 -16 5 -15 5 4
4 14 -1 26 -9 28 -17z m183 0 c0 -5 -5 -10 -11 -10 -5 0 -7 5 -4 10 3 6 8 10
11 10 2 0 4 -4 4 -10z m-40 -24 c0 -3 -4 -8 -10 -11 -5 -3 -10 -1 -10 4 0 6 5
11 10 11 6 0 10 -2 10 -4z m-2139 -29 c-10 -9 -11 -8 -5 6 3 10 9 15 12 12 3
-3 0 -11 -7 -18z"/>
<path d="M6018 7328 c12 -12 24 -19 28 -15 10 10 -16 37 -34 37 -13 0 -12 -4
6 -22z"/>
<path d="M6200 7226 c0 -15 21 -26 47 -26 14 0 14 3 -2 20 -21 23 -45 26 -45
6z"/>
<path d="M6520 7112 c0 -5 11 -14 25 -20 26 -12 33 -4 13 16 -14 14 -38 16
-38 4z"/>
<path d="M6616 7033 c-8 -9 24 -43 40 -43 7 0 15 4 19 10 7 11 -49 42 -59 33z"/>
<path d="M6730 7022 c0 -15 24 -32 45 -32 19 0 18 2 -5 20 -27 21 -40 25 -40
12z"/>
<path d="M6850 7001 c0 -9 24 -21 42 -21 6 0 6 6 -2 15 -14 16 -40 20 -40 6z"/>
<path d="M7400 6846 c0 -16 37 -29 45 -16 3 5 -3 14 -14 19 -26 14 -31 14 -31
-3z"/>
<path d="M7270 6841 c0 -13 58 -32 65 -21 6 10 -26 30 -49 30 -9 0 -16 -4 -16
-9z"/>
<path d="M7845 6730 c3 -5 13 -10 21 -10 8 0 14 5 14 10 0 6 -9 10 -21 10 -11
0 -17 -4 -14 -10z"/>
<path d="M8088 6713 c7 -3 16 -2 19 1 4 3 -2 6 -13 5 -11 0 -14 -3 -6 -6z"/>
<path d="M8195 6670 c3 -5 13 -10 21 -10 8 0 14 5 14 10 0 6 -9 10 -21 10 -11
0 -17 -4 -14 -10z"/>
<path d="M8440 6650 c0 -5 7 -10 16 -10 8 0 12 5 9 10 -3 6 -10 10 -16 10 -5
0 -9 -4 -9 -10z"/>
<path d="M8555 6600 c3 -5 15 -10 26 -10 11 0 17 5 14 10 -3 6 -15 10 -26 10
-11 0 -17 -4 -14 -10z"/>
<path d="M7707 6703 c7 -19 63 -17 63 2 0 12 -9 15 -34 13 -23 -1 -32 -6 -29
-15z"/>
<path d="M7955 6690 c-4 -6 5 -10 20 -10 15 0 24 4 20 10 -3 6 -12 10 -20 10
-8 0 -17 -4 -20 -10z"/>
<path d="M8065 6640 c-4 -6 7 -10 25 -10 18 0 29 4 25 10 -3 6 -15 10 -25 10
-10 0 -22 -4 -25 -10z"/>
<path d="M8306 6631 c-3 -5 4 -11 16 -14 25 -7 33 -3 23 12 -8 13 -32 14 -39
2z"/>
<path d="M8665 6550 c-3 -5 -3 -15 0 -23 7 -17 55 -11 55 8 0 14 -48 27 -55
15z"/>
<path d="M9160 6441 c0 -10 36 -21 44 -14 3 3 3 10 0 14 -7 12 -44 12 -44 0z"/>
<path d="M9392 6338 c3 -7 13 -15 24 -17 16 -3 17 -1 5 13 -16 19 -34 21 -29
4z"/>
<path d="M9480 6212 c0 -5 9 -19 20 -32 19 -21 20 -22 20 -4 0 20 -17 44 -32
44 -4 0 -8 -4 -8 -8z"/>
<path d="M6134 7305 c11 -8 22 -12 25 -9 6 6 -19 24 -34 24 -5 -1 -1 -7 9 -15z"/>
<path d="M6329 7199 c13 -11 27 -17 30 -13 7 7 -28 34 -43 34 -6 -1 0 -10 13
-21z"/>
<path d="M6435 7180 c3 -5 14 -10 23 -10 15 0 15 2 2 10 -20 13 -33 13 -25 0z"/>
<path d="M6654 7085 c11 -8 22 -12 25 -9 6 6 -19 24 -34 24 -5 -1 -1 -7 9 -15z"/>
<path d="M6965 6990 c3 -5 14 -10 23 -10 15 0 15 2 2 10 -20 13 -33 13 -25 0z"/>
<path d="M7060 6921 c0 -12 39 -25 48 -16 7 7 -17 25 -35 25 -7 0 -13 -4 -13
-9z"/>
<path d="M7183 6917 c2 -7 14 -14 26 -15 28 -4 20 13 -9 21 -14 3 -20 1 -17
-6z"/>
<path d="M7240 6915 c7 -8 17 -15 22 -15 6 0 5 7 -2 15 -7 8 -17 15 -22 15 -6
0 -5 -7 2 -15z"/>
<path d="M7458 6883 c7 -3 16 -2 19 1 4 3 -2 6 -13 5 -11 0 -14 -3 -6 -6z"/>
<path d="M7498 6873 c7 -3 16 -2 19 1 4 3 -2 6 -13 5 -11 0 -14 -3 -6 -6z"/>
<path d="M7520 6846 c0 -2 7 -7 16 -10 8 -3 12 -2 9 4 -6 10 -25 14 -25 6z"/>
<path d="M7619 6776 c16 -19 55 -22 49 -3 -3 6 -17 14 -33 15 -25 3 -27 2 -16
-12z"/>
<path d="M9040 6521 c0 -5 9 -11 20 -14 24 -6 27 8 4 17 -21 8 -24 8 -24 -3z"/>
<path d="M9290 6430 c20 -13 33 -13 25 0 -3 6 -14 10 -23 10 -15 0 -15 -2 -2
-10z"/>
<path d="M391 5971 c-12 -22 -5 -27 19 -11 11 7 12 12 3 21 -8 8 -14 6 -22
-10z"/>
<path d="M9610 5914 c0 -8 5 -12 10 -9 6 4 8 11 5 16 -9 14 -15 11 -15 -7z"/>
<path d="M9577 5893 c-4 -6 -3 -21 1 -34 5 -13 11 -18 15 -12 4 6 3 21 -1 34
-5 13 -11 18 -15 12z"/>
<path d="M9640 5866 c0 -9 7 -19 15 -23 25 -9 27 2 5 22 -18 17 -20 17 -20 1z"/>
<path d="M9732 5640 c0 -14 2 -19 5 -12 2 6 2 18 0 25 -3 6 -5 1 -5 -13z"/>
<path d="M6798 1830 c-61 -10 -114 -43 -134 -83 -9 -17 -19 -67 -22 -114 l-5
-83 -48 0 -49 0 0 -70 0 -70 50 0 50 0 0 -275 0 -275 95 0 95 0 0 275 0 275
65 0 65 0 0 70 0 70 -65 0 -65 0 0 53 c0 73 18 89 97 86 l58 -3 12 59 c6 33
10 63 7 67 -4 6 -38 12 -129 22 -16 2 -51 0 -77 -4z"/>
<path d="M1170 1340 l0 -480 90 0 90 0 1 363 1 362 91 -362 92 -363 96 0 96 0
88 353 c48 193 92 359 96 367 5 8 9 -150 9 -352 l0 -368 90 0 90 0 0 480 0
480 -148 0 -148 0 -84 -320 c-46 -176 -87 -317 -90 -313 -4 5 -42 141 -85 303
-43 162 -80 303 -83 313 -4 15 -20 17 -148 17 l-144 0 0 -480z"/>
<path d="M4240 1335 l0 -475 335 0 335 0 0 80 0 80 -240 0 -240 0 0 395 0 395
-95 0 -95 0 0 -475z"/>
<path d="M2448 1555 c-63 -20 -149 -100 -176 -163 -50 -115 -49 -274 0 -380
32 -67 94 -126 159 -148 80 -28 217 -26 286 5 57 25 111 78 142 139 l20 39
-72 12 c-40 7 -81 14 -93 17 -16 4 -24 -1 -34 -26 -7 -18 -27 -41 -44 -51 -84
-51 -189 9 -210 119 l-5 32 234 0 234 0 -5 68 c-18 223 -123 340 -314 348 -48
3 -92 -2 -122 -11z m188 -150 c34 -22 55 -58 61 -105 l6 -40 -137 0 -136 0 0
34 c0 71 80 142 149 132 18 -3 44 -12 57 -21z"/>
<path d="M3360 1561 c-40 -13 -85 -38 -119 -67 l-31 -26 0 41 0 41 -90 0 -90
0 0 -345 0 -345 95 0 95 0 0 213 c0 116 5 229 10 249 6 20 26 50 45 67 64 56
148 50 186 -13 17 -28 19 -54 19 -273 l0 -243 95 0 95 0 0 250 c0 142 -5 271
-11 300 -20 95 -95 151 -209 156 -36 2 -76 0 -90 -5z"/>
<path d="M5267 1560 c-98 -25 -176 -90 -223 -186 -27 -54 -29 -68 -29 -169 0
-105 2 -114 33 -177 62 -126 160 -181 322 -182 83 -1 102 3 152 26 150 70 230
235 199 406 -32 174 -156 280 -334 288 -45 2 -99 -1 -120 -6z m170 -161 c147
-71 129 -354 -27 -400 -115 -35 -209 57 -210 204 0 166 110 258 237 196z"/>
<path d="M6033 1560 c-83 -18 -137 -61 -172 -140 -11 -24 -19 -46 -17 -47 1
-2 29 -8 62 -13 32 -6 69 -13 81 -15 17 -4 26 2 38 26 42 81 197 77 225 -5 8
-27 9 -40 1 -50 -6 -7 -57 -23 -113 -35 -201 -44 -257 -71 -293 -140 -60 -117
6 -260 135 -291 92 -22 203 3 266 62 23 21 28 18 38 -24 6 -28 6 -28 96 -28
94 0 100 3 78 43 -9 15 -14 103 -18 272 -7 267 -10 283 -62 332 -42 39 -97 55
-203 59 -55 2 -119 -1 -142 -6z m224 -430 c-9 -81 -28 -114 -80 -139 -51 -25
-78 -26 -117 -6 -55 28 -68 95 -27 134 19 17 171 66 221 70 5 1 6 -26 3 -59z"/>
<path d="M7232 1556 c-112 -37 -190 -137 -212 -272 -30 -186 35 -346 168 -411
51 -25 67 -28 157 -28 107 0 171 20 224 68 28 26 81 106 81 123 0 7 -29 17
-72 24 -40 6 -80 14 -89 16 -11 3 -21 -6 -29 -27 -8 -17 -27 -40 -44 -50 -83
-51 -188 8 -211 119 l-7 32 233 0 232 0 -5 88 c-9 150 -71 254 -183 303 -62
28 -181 35 -243 15z m184 -151 c28 -18 63 -87 64 -122 0 -23 -2 -23 -135 -23
l-135 0 0 33 c0 41 31 92 72 118 38 23 93 21 134 -6z"/>
<path d="M8074 1556 c-17 -8 -45 -31 -62 -52 l-32 -39 0 43 0 42 -85 0 -85 0
0 -345 0 -345 89 0 89 0 4 213 c4 188 7 217 25 259 12 25 31 52 43 58 21 11
84 9 125 -4 18 -6 23 2 47 71 29 85 29 86 -32 103 -47 13 -89 12 -126 -4z"/>
<path d="M8468 1556 c-105 -28 -168 -103 -168 -199 0 -130 77 -185 332 -242
86 -19 114 -40 104 -79 -9 -36 -60 -59 -126 -59 -67 0 -114 22 -136 66 -9 17
-18 34 -20 35 -1 2 -44 -2 -94 -8 -85 -12 -90 -14 -84 -34 18 -65 112 -156
182 -176 104 -30 262 -21 342 20 76 39 120 111 120 196 0 119 -60 167 -285
225 -66 16 -130 37 -142 45 -49 31 -17 76 63 89 60 9 119 -10 150 -48 l26 -33
84 15 c78 13 84 16 78 35 -11 38 -45 86 -78 111 -65 50 -239 70 -348 41z"/>
</g>
</svg>
